<?xml version="1.0" encoding="utf-8"?>
<!-- Generator: Adobe Illustrator 27.0.0, SVG Export Plug-In . SVG Version: 6.00 Build 0)  -->
<svg version="1.1" id="Layer_1" xmlns="http://www.w3.org/2000/svg" xmlns:xlink="http://www.w3.org/1999/xlink" x="0px" y="0px"
	 viewBox="0 0 512 512" style="enable-background:new 0 0 512 512;" xml:space="preserve">
<style type="text/css">
	.st0{fill:#0E3846;}
	.st1{fill:#FFFFFF;}
	.st2{fill:#ECAB23;}
</style>
<g id="XMLID_1_">
	<path id="XMLID_2_" class="st0" d="M164,359.16c-8.69-4.63-11.5-16.41-5.89-25.38c6.03-9.82,23.28-10.38,28.04-1.12
		c2.52,5.05,2.38,5.47-3.79,7.71c-3.08,1.12-8.13,2.66-11.22,3.37c-5.33,1.26-5.47,1.4-5.05,3.23c0.84,3.37,3.37,6.59,6.17,7.99
		c2.52,1.26,7.01,1.26,13.46,0.28c2.8-0.42,1.54,1.96-1.82,3.65C179.14,361.13,168.07,361.27,164,359.16z"/>
	<path id="XMLID_3_" class="st1" d="M171.01,339.81c7.71-1.54,7.43-1.4,6.59-4.21c-1.54-5.33-7.15-7.85-9.96-4.63
		c-1.68,1.96-3.79,9.96-2.52,9.96C165.4,340.93,167.93,340.51,171.01,339.81z"/>
	<path id="XMLID_4_" class="st0" d="M207.75,360.14c-1.12-1.12-0.42-2.52,1.26-2.52c3.37,0,3.51-0.84,3.37-22.01l-0.14-19.91
		l-2.24-0.42c-1.4-0.28-2.38-0.98-2.52-1.68c-0.28-1.26,0.98-1.26,17.53-1.26h17.81l0.56,3.93c0.7,5.89,0.28,8.55-1.4,8.55
		c-0.98,0-1.68-0.98-2.52-3.08c-1.68-4.77-3.23-5.61-10.24-5.61h-6.03v9.54v9.54l5.89-0.28c5.75-0.28,5.89-0.28,7.01-2.66
		c0.56-1.4,1.54-2.52,2.1-2.52c0.7,0,0.98,1.82,0.98,7.57c0,6.03-0.28,7.57-1.12,7.57c-0.56,0-1.26-0.98-1.54-2.24
		c-0.7-3.08-2.38-3.79-8.27-3.79h-5.05l0.28,8.83l0.28,8.83l2.52,0.7c1.54,0.42,2.52,1.26,2.52,2.1c0,1.26-0.84,1.4-10.1,1.4
		C212.8,360.71,208.03,360.43,207.75,360.14z"/>
	<path id="XMLID_5_" class="st0" d="M247.29,359.16c0-0.98,0.56-1.54,2.1-1.68l2.1-0.28v-12.9v-12.9l-2.1-0.28
		c-1.4-0.14-2.1-0.7-2.1-1.54c0-1.4,3.08-2.38,11.08-3.51l3.23-0.42l0.14,15.85l0.14,15.85l2.1,0.28c1.4,0.14,2.1,0.7,2.1,1.68
		c0,1.4-0.56,1.4-9.39,1.4C247.85,360.71,247.29,360.57,247.29,359.16z"/>
	<path id="XMLID_6_" class="st0" d="M270.71,359.16c0-0.98,0.56-1.54,1.4-1.54c2.8,0,3.23-1.4,3.23-12.9
		c0-6.17-0.14-11.64-0.42-12.34c-0.28-0.7-1.26-1.26-2.24-1.26c-1.26,0-1.82-0.42-1.82-1.4c0-1.12,1.12-1.68,6.03-2.66
		c6.45-1.4,8.27-1.26,8.27,0.84c0,0.84,0.42,1.12,1.26,0.7c7.01-2.94,10.52-3.37,15.42-1.4s5.89,5.05,5.89,18.09
		c0,10.94,0.42,12.48,3.23,12.48c0.84,0,1.4,0.56,1.4,1.54c0,1.4-0.42,1.54-9.25,1.26c-7.99-0.14-9.25-0.42-9.54-1.54
		c-0.14-0.84,0.42-1.4,1.82-1.54l2.1-0.28l0.28-9.82c0.14-5.47,0-10.66-0.14-11.5c-0.7-3.08-3.08-4.77-6.73-4.77
		c-5.75,0-5.89,0.28-5.61,14.02l0.14,12.06l2.1,0.28c1.54,0.14,2.1,0.56,1.82,1.54c-0.14,1.12-1.54,1.26-9.54,1.54
		C271.13,360.71,270.71,360.71,270.71,359.16z"/>
	<path id="XMLID_7_" class="st0" d="M318.25,358.46c-1.68-1.68-2.24-2.94-2.24-5.19c0-5.47,5.89-10.1,15.28-12.2l4.35-0.98
		l-0.42-2.66c-0.84-4.77-2.1-6.17-6.03-6.17c-3.08,0-3.79,0.42-6.03,2.66c-1.4,1.54-2.52,3.08-2.52,3.37c0,1.54-1.54,0.56-2.66-1.54
		c-1.12-2.24-1.12-2.24,2.38-4.91c3.79-2.8,9.54-4.91,13.6-4.91c3.51,0,8.41,2.1,9.54,4.07c0.56,0.98,1.12,6.45,1.4,12.9
		c0.42,11.78,1.26,14.72,3.79,14.72c1.82,0,2.8,1.54,1.4,2.38c-1.96,1.26-10.66,0.84-12.2-0.56c-1.26-1.12-1.54-1.12-4.07,0
		c-1.68,0.84-4.63,1.26-7.99,1.26C320.91,360.71,320.35,360.43,318.25,358.46z"/>
	<path id="XMLID_8_" class="st1" d="M334.51,355.66c0.98-0.42,1.26-1.68,1.26-6.03c0-5.47,0-5.61-1.96-5.61
		c-2.52,0-6.03,1.82-6.73,3.51c-0.84,2.24-0.42,5.89,0.84,7.29C329.18,356.08,332.27,356.5,334.51,355.66z"/>
	<path id="XMLID_9_" class="st0" d="M353.58,360.14c-1.12-1.12-0.42-2.38,1.54-2.66l2.1-0.28v-12.9v-12.9l-2.1-0.28
		c-1.4-0.14-2.1-0.7-2.1-1.54c0-1.4,3.08-2.38,11.22-3.51c3.08-0.42,3.23-0.42,3.23,1.54v1.96l2.8-1.68
		c2.24-1.26,4.07-1.68,8.13-1.68c9.96,0,11.78,2.94,12.34,19.63c0.42,11.36,0.42,11.36,2.38,11.78c0.98,0.28,1.82,0.98,1.82,1.54
		c0,0.84-1.68,1.12-9.39,1.12c-7.85,0-9.39-0.14-9.39-1.12c0-0.56,0.7-1.26,1.68-1.4c2.94-0.42,3.51-2.66,3.08-12.76
		c-0.42-11.36-1.4-13.32-6.73-13.74c-1.82-0.14-4.07,0.14-5.05,0.7c-1.68,0.98-1.82,0.98-1.54,13.04l0.14,12.2l2.1,0.28
		c1.4,0.14,2.1,0.7,2.1,1.68c0,1.4-0.56,1.4-8.97,1.4C358.21,360.71,353.86,360.43,353.58,360.14z"/>
	<path id="XMLID_10_" class="st0" d="M406.02,358.88c-1.82-0.98-4.35-3.08-5.61-4.63c-1.96-2.52-2.38-3.51-2.66-8.41
		c-0.28-4.63,0-6.17,1.4-8.97c4.07-8.55,15.42-13.04,25.38-9.96c2.66,0.84,2.94,1.12,2.8,3.08c-0.14,1.26-0.84,2.8-1.68,3.65
		l-1.54,1.54l-2.24-2.1c-1.54-1.54-3.23-2.24-5.61-2.52c-2.94-0.28-3.65-0.14-5.33,1.54c-4.77,4.77-4.49,15.14,0.7,20.47
		c2.94,3.08,6.03,3.79,12.48,3.23c3.93-0.42,4.49-0.28,4.49,0.98c0,2.24-5.19,3.79-12.76,3.79
		C410.51,360.71,408.69,360.28,406.02,358.88z"/>
	<path id="XMLID_11_" class="st0" d="M432.53,359.3c0-0.98,0.7-1.54,2.24-1.82l2.24-0.42l-0.14-12.62l-0.14-12.62l-2.1-0.28
		c-1.4-0.14-2.1-0.7-2.1-1.54c0-1.12,1.26-1.54,5.75-2.66c9.54-2.1,8.55-3.65,8.83,14.44l0.14,15.7l2.1,0.28
		c1.4,0.14,2.1,0.7,2.1,1.68c0,1.4-0.56,1.4-9.39,1.4C433.23,360.71,432.53,360.57,432.53,359.3z"/>
	<path id="XMLID_12_" class="st0" d="M458.75,358.88c-6.87-6.31-0.7-14.86,13.04-17.95l4.07-0.84l-0.42-2.94
		c-0.56-4.07-2.38-5.89-6.03-5.89c-3.79,0-5.33,0.84-7.43,4.21c-1.96,3.23-2.38,3.23-3.79,0.7c-0.98-1.96-0.98-2.1,2.1-4.77
		c5.33-4.77,13.88-6.59,19.49-4.21c4.35,1.82,5.19,4.49,5.61,17.39c0.28,6.17,0.7,11.78,0.98,12.34c0.28,0.56,1.26,0.98,1.96,0.98
		c1.82,0,2.8,1.54,1.4,2.38c-1.82,1.12-9.96,0.84-11.78-0.42c-1.54-0.98-1.82-0.98-3.93,0c-1.4,0.7-4.35,1.12-7.85,1.12
		C461.41,360.71,460.43,360.43,458.75,358.88z"/>
	<path id="XMLID_13_" class="st1" d="M475.43,349.91l0.28-5.89h-2.24c-3.51,0-6.87,3.23-6.87,6.59c0,3.93,1.82,5.61,5.61,5.33
		l3.08-0.28L475.43,349.91z"/>
	<path id="XMLID_14_" class="st0" d="M493.52,360.14c-1.12-1.12-0.42-2.38,1.54-2.66l2.1-0.28v-22.3v-22.3l-2.1-0.28
		c-1.54-0.14-2.1-0.56-1.82-1.54c0.28-1.26,2.1-1.82,10.24-2.66l3.93-0.42v23.98c0,24.96,0.14,25.8,3.23,25.8
		c0.84,0,1.4,0.56,1.4,1.54c0,1.4-0.56,1.54-8.97,1.54C498.01,360.71,493.8,360.43,493.52,360.14z"/>
	<path id="XMLID_15_" class="st0" d="M67.25,358.88c0-0.56,0.98-1.26,2.1-1.54c1.4-0.28,2.38-0.98,2.66-2.24
		c0.7-2.8,0.56-35.9-0.28-38c-0.56-1.4-1.26-1.96-2.66-1.96s-1.96-0.42-1.96-1.54c0-1.54,0.42-1.54,10.38-1.26
		c8.55,0.14,10.38,0.42,10.38,1.4c0,0.7-0.98,1.26-2.24,1.54l-2.24,0.42l-0.14,20.19l-0.14,20.19l1.68,0.42
		c5.61,1.54,11.22-0.7,13.46-5.19c0.84-1.82,1.54-3.65,1.54-4.07c0-0.56,0.84-0.84,1.96-0.84c1.96,0,1.96,0.14,1.4,3.65
		c-0.28,1.96-0.84,5.05-1.26,6.87l-0.84,3.23H84.07C70.33,359.86,67.25,359.72,67.25,358.88z"/>
	<path id="XMLID_16_" class="st0" d="M106.65,358.74c0-0.56,0.56-1.12,1.4-1.12c2.8,0,3.23-1.4,3.23-12.9
		c0-6.17-0.14-11.64-0.42-12.34c-0.28-0.7-1.26-1.26-2.24-1.26c-1.26,0-1.82-0.42-1.82-1.4c0-1.54,3.08-2.52,10.38-3.51l3.93-0.56
		l0.14,15.85l0.14,15.85l2.1,0.28c1.12,0.14,2.1,0.7,2.1,1.26c0,0.84-1.68,1.12-9.39,1.12
		C108.19,359.86,106.65,359.72,106.65,358.74z"/>
	<path id="XMLID_17_" class="st0" d="M129.51,359.02c0.14-0.56,0.98-1.12,1.82-1.26s1.82-0.56,2.24-0.98
		c0.42-0.42,0.98-8.27,1.12-19.07c0.42-16.83,0.56-18.51,1.96-21.31c3.23-6.03,8.69-9.39,15-9.39c3.51,0,8.69,1.68,8.69,2.8
		c0,0.98-2.94,5.47-3.65,5.47c-0.28,0-1.82-0.84-3.23-1.82c-3.23-2.38-6.45-2.52-7.85-0.14c-0.7,0.98-1.26,4.07-1.4,7.71l-0.28,6.03
		l4.77,0.28c4.07,0.14,4.77,0.42,4.77,1.68c0,1.12-0.56,1.54-2.52,1.54c-1.4,0-3.65,0.28-4.91,0.42l-2.38,0.42v11.22
		c0,13.46,0.42,15.14,4.21,15.14c1.82,0,2.66,0.28,2.66,1.12c0,0.98-1.68,1.12-10.66,1.12
		C131.61,359.86,129.23,359.72,129.51,359.02z"/>
	<path id="XMLID_18_" class="st0" d="M111.28,318.64c-2.1-2.66-1.96-4.49,0.28-6.73c2.24-2.24,4.91-2.38,7.43-0.28
		c2.52,1.96,2.66,5.19,0.28,7.43C116.75,321.3,113.24,321.16,111.28,318.64z"/>
	<path id="XMLID_19_" class="st0" d="M251.78,318.5c-3.65-4.63,1.68-10.52,7.01-7.71c2.24,1.12,2.8,2.1,2.8,4.63
		C261.6,320.46,254.87,322.42,251.78,318.5z"/>
	<path id="XMLID_20_" class="st0" d="M437.15,318.64c-2.1-2.66-1.96-4.49,0.28-6.73c3.51-3.51,9.54-1.26,9.54,3.65
		C446.83,320.32,440.1,322.42,437.15,318.64z"/>
	<path id="XMLID_21_" class="st2" d="M246.17,292.84c-1.26-1.54-4.21-4.21-6.59-5.89l-4.35-3.23l3.79-2.66
		c2.1-1.54,4.07-2.66,4.63-2.66c1.4,0,6.03,12.06,6.03,16.13C249.54,296.2,248.7,295.92,246.17,292.84z"/>
	<path id="XMLID_22_" class="st0" d="M5.83,292.42c-1.54-0.42-3.37-1.68-4.07-2.66c-1.68-2.52-2.38-12.34-0.98-13.18
		c1.96-1.26,2.8-0.7,4.07,3.23c2.38,7.15,7.85,11.22,13.6,10.24c3.65-0.7,5.33-2.94,5.33-7.29c0-4.49-1.68-6.59-8.69-10.38
		c-8.97-4.91-11.36-7.01-13.04-10.66c-1.82-4.21-1.4-8.97,0.98-12.48c3.23-4.49,12.48-6.87,20.47-5.19
		c6.31,1.26,6.87,1.96,7.29,8.27l0.42,5.47h-1.96c-1.26,0-1.96-0.42-1.96-1.12c0-1.96-2.94-7.01-4.63-8.27
		c-2.38-1.68-7.57-1.54-9.96,0.42c-1.54,1.26-1.96,2.24-1.96,4.77c0,4.07,1.82,5.89,10.52,10.66c10.66,5.89,13.18,9.11,12.76,16.13
		c-0.42,5.05-2.38,8.13-6.87,10.66c-2.66,1.54-4.35,1.82-10.66,1.96C12.14,293.26,7.37,292.98,5.83,292.42z"/>
	<path id="XMLID_23_" class="st0" d="M47.06,292.28c-3.79-1.68-4.63-4.77-4.77-15.7c-0.14-11.36-0.42-13.04-2.94-13.04
		c-1.12,0-1.96-0.56-2.1-1.26c-0.28-1.4,3.08-2.66,9.82-3.37l4.21-0.42l0.28,12.76c0.28,13.6,0.7,15.28,4.21,16.83
		c2.38,1.12,6.45,0.98,7.99-0.14c1.12-0.84,1.26-2.24,1.12-12.62l-0.14-11.78h-2.1c-1.54,0-2.1-0.28-2.1-1.26
		c0-1.54,3.51-2.8,9.96-3.37l4.35-0.42v13.6c0,7.57,0.14,14.16,0.42,14.86c0.28,0.7,1.26,1.26,2.24,1.26c1.26,0,1.82,0.42,1.82,1.4
		c0,1.12-0.98,1.68-4.35,2.66c-5.75,1.54-7.15,1.54-8.27-0.28c-0.98-1.4-0.98-1.4-4.21,0C58.69,293.68,50.7,293.82,47.06,292.28z"/>
	<path id="XMLID_24_" class="st0" d="M84.07,291.3c0.14-0.7,0.98-1.4,1.82-1.54c2.24-0.28,2.52-1.96,2.52-13.18
		c0-10.94-0.7-13.74-3.23-13.32c-1.12,0.14-1.82-0.14-1.96-0.98c-0.28-1.4,3.93-2.94,10.1-3.51c3.79-0.42,4.07-0.28,4.07,1.26
		c0,1.96-0.28,1.96,3.65,0.14c3.79-1.82,11.36-2.1,14.58-0.42c4.07,2.1,4.91,4.77,5.33,17.67l0.42,11.64l1.82,0.42
		c0.98,0.28,1.96,0.98,2.1,1.68c0.28,1.12-0.7,1.26-9.25,1.26s-9.54-0.14-9.25-1.26c0.14-0.7,1.12-1.54,2.1-1.68l1.82-0.42v-11.22
		v-11.22l-2.1-1.82c-2.52-2.1-6.17-2.38-8.69-0.7c-1.68,1.12-1.68,1.68-1.68,13.18v11.92l2.24,0.42c1.26,0.28,2.24,0.98,2.24,1.54
		c0,0.98-1.54,1.12-9.54,1.12C84.64,292.56,83.79,292.42,84.07,291.3z"/>
	<path id="XMLID_25_" class="st2" d="M192.89,291.86c-10.24-1.82-21.73-7.15-28.47-13.04l-3.08-2.66l4.91,1.54
		c5.61,1.82,19.07,2.24,25.1,0.7c3.51-0.84,3.65-0.84,9.11,2.8c5.89,3.93,11.36,6.45,15.7,7.29c1.68,0.28,0.56-0.42-2.8-1.68
		c-5.61-2.24-14.72-8.27-14.3-9.54c0.14-0.42,3.23-1.82,7.01-3.08c12.62-4.49,22.72-10.66,30.99-18.51
		c5.19-5.05,8.83-9.39,10.52-12.9c1.96-3.79,2.24-1.68,0.42,2.52c-3.79,8.97-12.2,18.51-21.59,24.82c-2.66,1.82-4.91,3.51-4.91,3.93
		s1.82,3.08,4.21,5.89s4.21,5.33,4.21,5.61c0,0.84-6.03,3.51-7.85,3.51c-1.12,0-1.96,0.28-1.96,0.56
		C220.09,291.44,200.6,293.12,192.89,291.86z"/>
	<path id="XMLID_26_" class="st2" d="M259.91,278.96c-1.96-1.12-5.33-2.8-7.43-3.51c-2.1-0.7-3.79-1.68-3.79-1.96
		c0-0.7,5.19-6.73,6.17-7.15c0.98-0.42,5.19,4.77,7.85,9.82C265.8,281.9,265.38,282.32,259.91,278.96z"/>
	<path id="XMLID_27_" class="st2" d="M169.19,275.59c-13.32-2.8-19.07-8.27-24.26-23c-1.68-4.77-1.82-5.47-0.7-4.49
		c4.63,4.07,13.6,6.17,23.98,5.75l6.73-0.28l3.08,4.49c1.68,2.52,5.47,7.29,8.55,10.66c5.47,6.17,5.47,6.17,3.37,6.73
		C184.89,276.57,174.1,276.71,169.19,275.59z"/>
	<path id="XMLID_28_" class="st2" d="M190.5,269.42c-4.77-5.19-12.48-15.99-11.92-16.55c0.14-0.14,2.8-0.98,5.75-1.82
		c10.94-3.08,24.82-9.96,33.93-16.83c10.24-7.71,16.97-15.28,22.3-24.96c2.38-4.35,2.94-4.91,2.52-2.94
		c-0.56,3.65-5.33,12.62-9.68,18.51c-5.19,7.01-15.28,16.13-22.58,20.47l-6.03,3.65l2.1,3.51c1.12,1.96,3.65,6.03,5.75,8.97
		l3.65,5.47l-4.21,1.82c-3.65,1.54-9.54,3.65-15.28,5.19C195.55,274.47,194.29,273.49,190.5,269.42z"/>
	<path id="XMLID_29_" class="st2" d="M270.85,262.69c-1.82-0.56-5.33-1.26-7.71-1.54c-2.52-0.28-4.49-0.7-4.49-0.84
		c0-1.12,4.07-8.55,4.77-8.55c1.68,0,11.22,8.13,12.76,10.8C277.02,264.23,275.62,264.23,270.85,262.69z"/>
	<path id="XMLID_30_" class="st2" d="M153.34,249.51c-2.38-0.7-5.61-2.38-7.01-3.51c-4.35-3.23-5.05-6.03-4.63-16.55
		c0.28-5.05,0.7-9.96,1.12-11.08l0.84-1.96l3.79,1.96c2.52,1.26,5.61,1.96,8.97,2.24l5.19,0.42l2.1,6.87
		c1.12,3.79,3.65,10.24,5.61,14.3c2.94,6.17,3.37,7.57,2.38,8.13C169.61,251.47,157.97,251.05,153.34,249.51z"/>
	<path id="XMLID_31_" class="st2" d="M174.52,246.28c-3.93-7.01-9.54-21.59-9.68-24.82c0-0.84,0.98-1.4,3.65-1.68
		c4.07-0.56,11.78-3.08,18.51-6.03c11.22-5.05,25.94-17.81,30.43-26.36c2.24-4.35,3.93-5.75,3.08-2.66
		c-1.96,7.29-9.54,18.09-17.11,24.4c-3.23,2.66-11.64,8.13-13.74,8.97c-0.56,0.14,1.26,4.63,4.77,11.64
		c3.08,6.17,5.75,11.5,5.89,11.78c0.42,0.98-19.77,8.27-23.14,8.27C176.62,249.51,175.5,247.97,174.52,246.28z"/>
	<path id="XMLID_32_" class="st2" d="M264.96,243.34c0.28-1.4,0.7-3.93,0.98-5.47c0.42-2.52,0.7-2.8,2.1-2.38
		c2.94,0.84,14.3,6.73,14.58,7.57c0.14,0.56-2.24,0.98-7.57,1.26c-4.35,0.28-8.41,0.7-9.25,0.98
		C264.54,245.86,264.4,245.72,264.96,243.34z"/>
	<path id="XMLID_33_" class="st2" d="M266.5,228.2c-0.84-2.38-0.7-8.83,0.14-9.25c1.26-0.42,9.96,0.84,13.46,1.96
		c4.21,1.4,3.93,2.38-0.98,3.51c-2.38,0.56-6.03,1.82-8.13,2.8C266.64,229.46,266.92,229.32,266.5,228.2z"/>
	<path id="XMLID_34_" class="st2" d="M153.9,217.26c-3.79-0.84-8.69-3.65-8.69-4.91c0-2.1,4.21-10.8,7.57-15.99
		c4.21-6.31,9.82-11.92,11.22-11.36c0.56,0.28,0.98,0.28,0.7,0c-0.7-0.7,2.24-3.65,5.33-5.47l2.66-1.54l3.08,9.25
		c1.68,5.05,4.49,12.48,6.17,16.41c2.8,6.59,2.94,7.29,1.82,8.13c-1.68,1.26-14.16,5.19-17.53,5.61c-2.52,0.28-2.66,0.14-3.51-3.51
		c-1.12-4.77-1.26-18.79-0.28-22.3c0.42-1.4,0.56-2.8,0.42-2.94c-0.14-0.14-0.84,1.68-1.54,3.93c-1.26,4.49-1.68,19.21-0.7,23.28
		c0.42,1.96,0.42,1.96-2.38,1.96C156.71,217.68,154.75,217.4,153.9,217.26z"/>
	<path id="XMLID_35_" class="st2" d="M262.44,207.86c-0.98-2.52-1.54-4.77-1.4-4.91s3.37-0.7,7.15-1.26
		c6.45-0.84,10.94-0.56,10.94,0.7c0,0.28-1.54,1.4-3.51,2.38s-5.19,3.08-7.15,4.77c-1.96,1.54-3.79,2.8-3.93,2.8
		C264.26,212.49,263.28,210.39,262.44,207.86z"/>
	<path id="XMLID_36_" class="st2" d="M254.72,193.7c-1.4-1.96-2.66-3.79-2.8-4.07c-0.28-0.7,7.01-4.07,11.22-5.19
		c1.82-0.42,4.07-0.98,4.77-1.26c2.24-0.7,1.54,0.98-2.24,4.77c-1.96,1.96-4.35,4.91-5.33,6.45c-0.98,1.54-2.1,2.8-2.38,2.8
		C257.67,197.21,256.27,195.66,254.72,193.7z"/>
	<path id="XMLID_37_" class="st2" d="M243.79,182.06c-2.1-1.68-3.93-3.23-3.93-3.65c-0.28-0.84,7.15-6.73,11.36-8.83
		c1.96-0.98,3.65-1.4,3.65-0.98s-0.84,2.38-1.96,4.21c-1.12,1.96-2.66,5.47-3.65,7.85l-1.54,4.35L243.79,182.06z"/>
	<path id="XMLID_38_" class="st2" d="M229.34,173.37c-2.24-1.12-3.93-2.38-3.93-2.8c0-1.96,9.82-13.18,11.5-13.18
		c0.84,0,0.7,0.56-0.56,4.63c-0.56,1.96-1.26,5.75-1.54,8.55c-0.28,2.8-0.7,5.05-0.98,4.91S231.45,174.35,229.34,173.37z"/>
	<path id="XMLID_39_" class="st2" d="M176.2,172.11c-1.26-3.37-1.96-15.28-0.98-15.85c0.42-0.28,1.82,1.26,3.08,3.51
		c1.26,2.24,3.65,5.47,5.33,7.43l3.08,3.51l-4.77,1.96l-4.77,1.96L176.2,172.11z"/>
	<path id="XMLID_40_" class="st2" d="M192.33,168.04c-0.84-2.24,2.24-16.83,3.51-16.83c0.28,0,1.26,2.52,2.24,5.47
		c0.98,2.94,2.38,6.59,3.23,7.99s1.4,2.66,1.26,2.8s-2.38,0.56-5.05,0.98C193.59,169.02,192.61,168.88,192.33,168.04z"/>
	<path id="XMLID_41_" class="st2" d="M212.52,168.6c-1.82-0.42-3.51-0.84-3.65-0.98c-1.12-1.12,6.31-16.41,7.99-16.41
		c0.28,0,0.7,2.8,0.7,6.31c0,3.51,0.42,7.43,0.84,8.83s0.7,2.66,0.7,2.8C219.25,169.58,215.88,169.16,212.52,168.6z"/>
</g>
</svg>
